<svg width="171" height="31" viewBox="0 0 171 31" fill="none" xmlns="http://www.w3.org/2000/svg">
<path d="M14.4968 10.7414C14.489 10.7284 14.476 10.7206 14.4682 10.7102C14.4578 10.6972 14.45 10.6816 14.4344 10.6738C14.4266 10.666 14.4162 10.666 14.4084 10.6608C14.3616 10.6348 14.3043 10.6296 14.2523 10.6504H14.2497C12.8972 11.2044 11.6773 11.9795 10.6161 12.9549C10.6083 12.9601 10.6031 12.9653 10.5953 12.9731C9.3598 12.5543 8.27777 11.8156 7.45585 10.8272C7.44805 10.8168 7.43764 10.8116 7.42984 10.8038C7.41684 10.7882 7.40643 10.7752 7.39343 10.7622C7.38823 10.7518 7.38562 10.744 7.37782 10.7336C7.05009 10.3278 6.77178 9.87267 6.5533 9.38888C6.5481 9.38107 6.54289 9.37327 6.53769 9.36547C6.52469 9.33686 6.51168 9.30824 6.49868 9.27963C6.49607 9.27443 6.49868 9.26923 6.49607 9.26663C6.40504 9.06115 6.32961 8.84786 6.26198 8.63458C6.25678 8.61377 6.24898 8.59296 6.24378 8.57476C6.18135 8.36407 6.12673 8.15079 6.08771 7.93751C5.83802 6.58758 6.0435 5.22724 6.61312 4.02297C7.34661 2.47536 8.67573 1.18266 10.4028 0.493386L10.4054 0.490785C10.486 0.459573 10.5329 0.37634 10.5251 0.293107V0.290506C10.5251 0.287905 10.5225 0.287905 10.5225 0.285304C10.5121 0.202072 10.4496 0.134445 10.3638 0.118839C10.1687 0.0876267 9.97364 0.0642175 9.77856 0.0460104C9.75255 0.0434094 9.72914 0.0434094 9.70313 0.0408083C9.54187 0.0278032 9.38321 0.0173991 9.22455 0.00959608C9.17773 0.00699506 9.12831 0.00699506 9.08149 0.00699506C8.93843 0.00179302 8.79538 0.00179302 8.65492 0.00439404C8.6081 0.00439404 8.56389 0.00699506 8.51707 0.00699506C8.47025 0.00959608 8.42343 0.00699506 8.37661 0.00959608C8.36881 0.00959608 8.36361 0.0147981 8.35841 0.0173991C8.30118 0.0200002 8.24396 0.0252022 8.18934 0.0278032C8.18674 0.0278032 8.18154 0.0252022 8.17894 0.0252022C8.15813 0.0278032 8.13992 0.0304042 8.12171 0.0330053C7.96825 0.0460104 7.81479 0.0642175 7.66393 0.0850257C7.61191 0.0928287 7.56249 0.0980308 7.51047 0.105834C7.37002 0.126642 7.23216 0.155253 7.09431 0.183864C7.02928 0.19687 6.96166 0.209875 6.89663 0.22288C6.79259 0.246289 6.68855 0.277501 6.58451 0.306112C6.49087 0.332123 6.39724 0.352931 6.3062 0.381542C6.26458 0.394547 6.22297 0.412754 6.17875 0.425759C6.0383 0.472578 5.90044 0.516795 5.76259 0.571417C5.57011 0.646846 5.38024 0.73268 5.19296 0.823716C5.15655 0.841923 5.11753 0.862731 5.08112 0.880938C4.93286 0.956368 4.7846 1.037 4.63895 1.12283C4.59993 1.14624 4.55831 1.16965 4.5193 1.19306C4.16556 1.40634 3.82223 1.64824 3.4971 1.91614C3.47109 1.93955 3.44248 1.96296 3.41647 1.98377C3.28121 2.09561 3.15116 2.21266 3.02371 2.33491C2.9899 2.36612 2.95869 2.39733 2.92487 2.42855C2.79742 2.55339 2.67257 2.68084 2.55293 2.8135C2.52952 2.83951 2.50611 2.86292 2.4827 2.88893C2.46709 2.90713 2.45149 2.92274 2.43588 2.93835C2.43328 2.94095 2.43328 2.94615 2.43068 2.95135C2.38906 2.99817 2.35265 3.04499 2.31363 3.09181C2.31103 3.09441 2.31103 3.09441 2.30843 3.09441C2.30063 3.10481 2.29282 3.11782 2.28242 3.12822C1.24461 4.36371 0.508525 5.8723 0.185998 7.48493C0.183397 7.49794 0.180796 7.51094 0.178195 7.52395C0.131377 7.76064 0.0949624 7.99993 0.0663512 8.24183C0.0637502 8.27044 0.0585481 8.30165 0.0533461 8.33026C0.0247348 8.59036 0.0065277 8.85047 0.00132566 9.11317C-0.00387638 9.39668 0.0065277 9.67759 0.0273359 9.9559C0.0325379 10.0079 0.040341 10.0573 0.045543 10.1094C0.0663512 10.333 0.0949624 10.5567 0.131377 10.7752C0.146983 10.8585 0.16519 10.9417 0.183397 11.0249C0.219811 11.2096 0.258827 11.3943 0.308246 11.5763C0.334256 11.6752 0.365469 11.7766 0.396681 11.8755C0.4461 12.0393 0.498121 12.2006 0.557944 12.3618C0.596959 12.4711 0.638576 12.5777 0.682793 12.6844C0.742617 12.8326 0.807642 12.9809 0.875269 13.1265C0.927289 13.2384 0.97931 13.3476 1.03393 13.4569C1.10676 13.5999 1.18739 13.7404 1.26802 13.8808C1.32785 13.9849 1.38507 14.0889 1.45009 14.193C1.55153 14.3568 1.66338 14.5155 1.77522 14.6742C1.82724 14.747 1.87146 14.8198 1.92608 14.8926C2.09515 15.1215 2.27722 15.3426 2.46709 15.5559C2.4749 15.5637 2.4801 15.5741 2.4879 15.5819C2.4931 15.5871 2.49831 15.5897 2.50091 15.5923C2.52432 15.6183 2.55033 15.6417 2.57113 15.6677C2.57374 15.6703 2.57374 15.6729 2.57634 15.6755C2.59194 15.6912 2.60755 15.7068 2.62315 15.725C2.78702 15.9044 2.95869 16.0761 3.13556 16.2452C3.16677 16.2738 3.20058 16.3024 3.23179 16.3336C3.40606 16.4949 3.58293 16.6483 3.7702 16.7992C3.80142 16.8226 3.83003 16.846 3.86124 16.872C4.05892 17.0281 4.2618 17.1763 4.46988 17.3194C4.48288 17.3272 4.49329 17.335 4.50629 17.3428C5.14094 17.772 5.82761 18.1439 6.5585 18.4404C6.75097 18.5211 6.94345 18.5939 7.13593 18.6615C7.14113 18.6641 7.14893 18.6667 7.15413 18.6693C7.14893 18.6849 7.14633 18.7031 7.14373 18.7187C7.0631 19.0179 6.99547 19.3222 6.93565 19.6291C6.92784 19.6759 6.91744 19.7201 6.90964 19.767C6.84981 20.0999 6.80039 20.438 6.76398 20.7787C6.76398 20.7813 6.76398 20.7813 6.76398 20.784C6.75618 20.849 6.75097 20.9114 6.74577 20.9764C6.74577 20.979 6.74317 20.9816 6.74317 20.9816C6.73797 21.0389 6.73277 21.0961 6.73017 21.1533C6.72757 21.1923 6.72236 21.2313 6.71976 21.2729H6.24117C5.98888 21.2729 5.75738 21.377 5.59092 21.5434C5.57531 21.5591 5.56491 21.5773 5.5493 21.5929C5.52589 21.6215 5.49988 21.6475 5.47908 21.6787C5.38024 21.827 5.32041 22.0038 5.32041 22.1937V23.9078C5.32041 24.3942 5.69756 24.7869 6.17355 24.8233V24.8285H6.23597C6.23857 24.8285 6.23857 24.8285 6.24117 24.8285H14.3251C14.4344 24.8285 14.5202 24.7401 14.5202 24.6335V10.8324C14.5202 10.8012 14.5124 10.7674 14.4968 10.7414ZM6.24117 21.6605H6.90183C6.92784 21.6605 6.95385 21.6553 6.97726 21.6449C7.04749 21.6163 7.09691 21.5513 7.09951 21.4706C7.10211 21.4472 7.10211 21.4212 7.10471 21.4004C7.10992 21.2937 7.12292 21.1871 7.13072 21.0805L12.3874 15.8212C12.4238 15.7822 12.442 15.7302 12.442 15.6807V13.9745C12.5981 13.8808 12.7047 13.7118 12.7047 13.5167C12.7047 13.2228 12.4654 12.9835 12.1715 12.9835C11.8776 12.9835 11.6383 13.2228 11.6383 13.5167C11.6383 13.7222 11.7553 13.899 11.927 13.9875V15.5481L7.22436 20.2507C7.22956 20.2221 7.23216 20.1935 7.23737 20.1649C7.26598 19.9802 7.29979 19.7982 7.3362 19.6135C7.35441 19.5277 7.36742 19.4392 7.38822 19.3534C7.44545 19.0959 7.51047 18.8384 7.5859 18.5887C7.61451 18.4872 7.55729 18.3806 7.45585 18.3494C7.43504 18.3416 7.41163 18.3338 7.39083 18.326C7.20875 18.2662 7.03189 18.1985 6.85762 18.1309C6.48567 17.9826 6.11372 17.8136 5.74698 17.6211L8.79018 14.5779C8.99826 14.6533 9.22455 14.5935 9.37801 14.4401C9.48725 14.3308 9.54707 14.193 9.54707 14.0343C9.54707 13.8782 9.48725 13.7378 9.37801 13.6285C9.15952 13.4101 8.77977 13.4049 8.56129 13.6285C8.45204 13.7378 8.39222 13.8782 8.39222 14.0343C8.39222 14.0967 8.40522 14.1565 8.42343 14.2112L5.27099 17.3662C4.85483 17.1191 4.45948 16.846 4.08493 16.5495C4.07452 16.5417 4.06412 16.5339 4.05632 16.5261C3.88985 16.3934 3.72859 16.253 3.57253 16.1125C3.54392 16.0865 3.5153 16.0631 3.48669 16.0371C3.32803 15.8888 3.17197 15.7354 3.02371 15.5793C3.01331 15.5689 3.0029 15.5585 2.9925 15.5481L7.29199 11.2486C8.14512 12.2162 9.27397 12.9653 10.5849 13.3866C10.6525 13.4075 10.7279 13.3918 10.7774 13.3424C10.7774 13.3424 10.78 13.3424 10.78 13.3398C10.819 13.3034 10.8632 13.2696 10.9022 13.2332C11.8516 12.3618 12.9336 11.6544 14.1275 11.129V17.746L7.3284 24.4358H6.24117C5.95246 24.4358 5.71317 24.1965 5.71317 23.9052V23.1145H6.78739C6.8186 23.1899 6.86282 23.2523 6.91744 23.3069C7.15934 23.554 7.5755 23.5566 7.81999 23.3121C7.94484 23.1899 8.01247 23.0338 8.01247 22.8596C8.01247 22.6853 7.94484 22.5318 7.81999 22.407C7.56509 22.1573 7.15413 22.1677 6.92004 22.407C6.86022 22.4668 6.8186 22.5292 6.78739 22.6021H5.71317V22.1911C5.71317 21.9752 5.84582 21.7853 6.03569 21.7047C6.10072 21.6735 6.16835 21.6605 6.24117 21.6605ZM8.65492 14.0343C8.65492 13.8574 8.79538 13.7222 8.97225 13.7222C9.14391 13.7222 9.28437 13.86 9.28437 14.0343C9.28437 14.206 9.14391 14.3464 8.97225 14.3464C8.79538 14.3464 8.65492 14.206 8.65492 14.0343ZM2.50351 14.9889C2.40207 14.864 2.30063 14.7366 2.20439 14.6065C2.13676 14.5155 2.07174 14.4219 2.00671 14.3282C1.91828 14.1982 1.83244 14.0681 1.74921 13.9355C1.68939 13.8392 1.63217 13.743 1.57754 13.6441C1.49951 13.5063 1.42669 13.3658 1.35386 13.2254C1.30704 13.1291 1.25762 13.0355 1.2134 12.9393C1.14317 12.7884 1.08075 12.6324 1.01832 12.4789C0.984512 12.3905 0.945496 12.302 0.914284 12.2136C0.851859 12.0393 0.797238 11.865 0.745218 11.6908C0.724409 11.618 0.698399 11.5425 0.680192 11.4697C0.628172 11.2616 0.583954 11.0561 0.544939 10.8481C0.534535 10.7986 0.52153 10.7492 0.513727 10.6998C0.469509 10.4475 0.438297 10.1952 0.417489 9.94029C0.417489 9.93249 0.414888 9.92469 0.414888 9.91949C0.39408 9.65158 0.386277 9.38367 0.391479 9.11317C0.427893 7.24824 1.09896 5.33129 2.25641 3.77848V10.6166C2.18098 10.6478 2.11856 10.692 2.06394 10.7466C1.94169 10.8689 1.87666 11.0249 1.87666 11.1992C1.87666 11.3735 1.93909 11.5269 2.06394 11.6492C2.30323 11.8963 2.71679 11.9041 2.96649 11.6492C3.09134 11.5243 3.15376 11.3709 3.15376 11.1992C3.15376 11.0223 3.08614 10.8663 2.96649 10.7466C2.91187 10.692 2.84424 10.6478 2.77401 10.6166V3.14123C2.81563 3.09441 2.85985 3.05279 2.90146 3.00597C2.9925 2.90973 3.08354 2.8135 3.17717 2.72246C3.22139 2.67824 3.26821 2.63403 3.31503 2.59241C3.41907 2.49357 3.52571 2.39993 3.63495 2.3063C3.67657 2.27248 3.71558 2.23607 3.7572 2.20226C4.06152 1.95256 4.38144 1.72627 4.71698 1.52339C4.75339 1.50258 4.7898 1.48177 4.82622 1.46097C4.96928 1.38033 5.10973 1.3023 5.25539 1.22947C5.2918 1.21127 5.32562 1.19306 5.36203 1.17485C5.5389 1.08902 5.72097 1.00839 5.90564 0.935559C6.32701 0.769094 6.76918 0.641644 7.22176 0.550608C7.36742 0.521997 7.51567 0.495987 7.66393 0.475179L4.73258 3.40913C4.69357 3.44554 4.67276 3.49496 4.67276 3.54698V8.20541C4.59733 8.23402 4.5323 8.28084 4.47248 8.33806C4.34763 8.46291 4.28521 8.61637 4.28521 8.78804C4.28521 8.95971 4.34763 9.11317 4.47248 9.24062C4.72218 9.48772 5.13314 9.48251 5.37503 9.24062C5.49988 9.11577 5.56231 8.96231 5.56231 8.78804C5.56231 8.61377 5.49988 8.46031 5.37503 8.33546C5.32041 8.28084 5.25799 8.24183 5.18776 8.21061V3.67964L8.46765 0.40235C8.49886 0.399749 8.53007 0.397148 8.56129 0.397148C8.64972 0.394547 8.73555 0.394547 8.82399 0.391946C8.91763 0.391946 9.01386 0.389345 9.1075 0.391946C9.27397 0.397148 9.44043 0.404951 9.6095 0.420557C9.14131 0.659851 8.71214 0.945964 8.31419 1.26589C7.04749 2.28289 6.15534 3.66923 5.7834 5.19083C5.56231 6.10119 5.52329 7.05576 5.70016 8.01034C5.73918 8.22102 5.7912 8.4265 5.85102 8.62938C5.85882 8.65279 5.86403 8.6762 5.87183 8.69961C5.93425 8.90509 6.00188 9.10797 6.08251 9.30304L2.69598 12.6922C2.4879 12.6167 2.26161 12.6766 2.10815 12.83C1.99891 12.9445 1.93909 13.0797 1.93909 13.241C1.93909 13.3944 1.99891 13.5349 2.10815 13.6467C2.32664 13.8626 2.69598 13.8704 2.92487 13.6415C3.03412 13.5271 3.09394 13.3918 3.09394 13.2384C3.09394 13.176 3.08093 13.1161 3.06273 13.0589L6.314 9.80764C6.49868 10.1718 6.71716 10.5151 6.96426 10.8402L2.64656 15.1579C2.59714 15.1033 2.55033 15.0461 2.50351 14.9889ZM2.83124 11.207C2.83124 11.3787 2.69078 11.5191 2.51391 11.5191C2.34224 11.5191 2.20179 11.3787 2.20179 11.207C2.20179 11.0353 2.34224 10.8949 2.51391 10.8949C2.69078 10.8949 2.83124 11.0353 2.83124 11.207ZM5.23978 8.78544C5.23978 8.95711 5.09933 9.09756 4.92766 9.09756C4.75599 9.09756 4.61554 8.95711 4.61554 8.78544C4.61554 8.61377 4.75599 8.47332 4.92766 8.47332C5.09933 8.47332 5.23978 8.61377 5.23978 8.78544ZM12.1585 22.6437C12.1039 22.6437 12.0571 22.6645 12.018 22.7035L10.2858 24.4358H8.06969L14.1301 18.469V22.6463H12.1585V22.6437ZM14.1301 23.1613V24.4358H11.0166L12.2911 23.1613H14.1301ZM7.0579 22.8544C7.0579 22.6827 7.19835 22.5422 7.37002 22.5422C7.54169 22.5422 7.68214 22.6827 7.68214 22.8544C7.68214 23.0312 7.54169 23.1717 7.37002 23.1717C7.20095 23.1717 7.0579 23.0312 7.0579 22.8544Z" fill="#0F0F19"/>
<path d="M15.9692 10.2809C15.9588 10.2835 15.9536 10.2861 15.9458 10.2861V24.6307H15.9692V28.7455L18.1229 30.457L20.2765 28.7455V24.6307H29.9991C30.3997 24.6307 30.7248 24.3056 30.7248 23.9024V22.1883C30.7248 21.7904 30.4023 21.4627 29.9991 21.4627H29.3437C29.302 20.6824 29.1772 19.6628 28.8495 18.5365C33.2192 17.1268 36.1245 13.2252 36.0465 9.11301C35.9815 5.65886 33.807 2.08766 30.4101 0.753331C28.5634 0.0276464 26.8545 0.160298 25.9129 0.311158C29.1018 1.58306 30.9277 4.85514 30.3477 7.97377C29.9003 10.4031 28.0536 12.4111 25.5982 13.1966C23.6916 11.3993 21.5926 10.6216 20.2791 10.2809V9.26647C20.2791 8.79829 19.8994 8.41594 19.4286 8.41594H16.8145C16.3464 8.41594 15.9666 8.79569 15.9666 9.26647V10.2809H15.9692Z" fill="#58A1CA"/>
<path d="M47.844 0.00268555L42.3975 18.1188H46.2834L47.4721 14.2979H54.4142L55.6028 18.1188H59.4654L54.0396 0.00268555H47.844ZM48.4969 10.9478L50.9418 3.05369L53.3868 10.9478H48.4969Z" fill="#0F0F19"/>
<path d="M63.0034 0.00268555V18.1188H66.7489V0.00268555H63.0034Z" fill="#0F0F19"/>
<path d="M79.3701 0.00268555L84.8167 18.1188H91.0123L96.438 0.00268555H92.5755L87.9171 15.0678L83.2378 0.00268555H79.3701Z" fill="#0F0F19"/>
<path d="M99.9761 0.00268555V18.1188H103.722V0.00268555H99.9761Z" fill="#0F0F19"/>
<path d="M108.404 0.00259959V18.1187H112.149V10.737L116.204 10.7136L119.926 18.1187H124.052L119.58 9.05936L124.052 0H119.926L116.204 7.3817H112.149V0H108.404V0.00259959Z" fill="#0F0F19"/>
<path d="M127.426 0.00268555V18.1188H131.171V0.00268555H127.426Z" fill="#0F0F19"/>
<path d="M135.854 0.00268555V18.1188H139.599V6.54426L146.331 18.1188H150.082V0.00268555H146.331V11.5772L139.599 0.00268555H135.854Z" fill="#0F0F19"/>
<path d="M157.366 0.00268555C155.925 0.00268555 154.783 1.14453 154.783 2.5881V15.5334C154.783 16.9796 155.925 18.1188 157.366 18.1188H166.425C167.871 18.1188 169.01 16.9769 169.01 15.5334V8.15429H161.956V11.507H165.26V14.0924C165.26 14.4878 164.958 14.7687 164.56 14.7687H159.251C158.856 14.7687 158.528 14.4878 158.528 14.0924V4.03167C158.528 3.63631 158.856 3.3606 159.251 3.3606H164.56C164.958 3.3606 165.26 3.63891 165.26 4.03167V5.03566H169.01V2.5907C169.01 1.14454 167.868 0.00528911 166.425 0.00528911H157.366V0.00268555Z" fill="#0F0F19"/>
<path d="M42.7341 25.2777C42.1879 25.2777 41.7613 25.4624 41.4492 25.8265C41.1345 26.1855 40.981 26.6771 40.981 27.2987C40.981 27.9412 41.1319 28.4432 41.4362 28.7969C41.7379 29.1454 42.1645 29.3197 42.7211 29.3197C43.0696 29.3197 43.4598 29.2599 43.8994 29.1324V29.6396C43.5586 29.7645 43.1399 29.8269 42.6405 29.8269C41.9174 29.8269 41.3556 29.6084 40.955 29.1714C40.5597 28.7267 40.3672 28.0998 40.3672 27.2987C40.3672 26.7915 40.4608 26.3441 40.6481 25.9618C40.8432 25.5794 41.1189 25.2855 41.4778 25.0774C41.8316 24.8745 42.2529 24.7705 42.7367 24.7705C43.2517 24.7705 43.7069 24.8641 44.1023 25.0514L43.8474 25.5456C43.478 25.3687 43.1087 25.2777 42.7341 25.2777Z" fill="#58A1CA"/>
<path d="M50.0853 27.2987C50.0853 28.0842 49.8851 28.7033 49.4845 29.1584C49.0839 29.6058 48.5273 29.8269 47.8251 29.8269C47.102 29.8269 46.5401 29.6084 46.1396 29.1714C45.7442 28.7267 45.5518 28.0972 45.5518 27.2857C45.5518 26.482 45.7468 25.8629 46.1396 25.426C46.5401 24.9916 47.102 24.7705 47.8251 24.7705C48.5377 24.7705 49.0891 24.9942 49.4845 25.439C49.8851 25.8863 50.0853 26.5054 50.0853 27.2987ZM46.1656 27.2987C46.1656 27.962 46.3035 28.464 46.5792 28.8099C46.8627 29.1584 47.2788 29.3327 47.8224 29.3327C48.3635 29.3327 48.777 29.1662 49.0527 28.8255C49.3258 28.477 49.4663 27.9698 49.4663 27.3013C49.4663 26.6328 49.3258 26.1308 49.0527 25.7901C48.7744 25.452 48.3635 25.2829 47.8224 25.2829C47.2762 25.2829 46.8627 25.4572 46.5792 25.8057C46.3009 26.1412 46.1656 26.638 46.1656 27.2987Z" fill="#58A1CA"/>
<path d="M55.8601 29.7593H55.2046L52.5152 25.6237H52.4892C52.523 26.1153 52.5438 26.5601 52.5438 26.9606V29.7567H52.021V24.833H52.6634L55.3399 28.953H55.3659C55.3659 28.8932 55.3555 28.6955 55.3399 28.3652C55.3191 28.0375 55.3165 27.8008 55.3269 27.6551V24.833H55.8627V29.7593H55.8601Z" fill="#58A1CA"/>
<path d="M62.3163 27.2987C62.3163 27.9229 62.1862 28.4457 61.9287 28.8645C61.679 29.2859 61.3201 29.5668 60.8571 29.7072L62.0354 30.9375H61.1927L60.2433 29.8269H60.056C59.3329 29.8269 58.7711 29.6084 58.3705 29.1714C57.9752 28.7267 57.7827 28.0972 57.7827 27.2857C57.7827 26.482 57.9778 25.8629 58.3705 25.426C58.7711 24.9916 59.3329 24.7705 60.056 24.7705C60.7687 24.7705 61.3201 24.9942 61.7155 25.439C62.116 25.8863 62.3163 26.5054 62.3163 27.2987ZM58.3966 27.2987C58.3966 27.962 58.5344 28.464 58.8101 28.8099C59.0936 29.1584 59.5098 29.3327 60.0534 29.3327C60.5944 29.3327 61.008 29.1662 61.2837 28.8255C61.5568 28.477 61.6973 27.9698 61.6973 27.3013C61.6973 26.6328 61.5568 26.1308 61.2837 25.7901C61.0054 25.452 60.5944 25.2829 60.0534 25.2829C59.5072 25.2829 59.0936 25.4572 58.8101 25.8057C58.5344 26.1412 58.3966 26.638 58.3966 27.2987Z" fill="#58A1CA"/>
<path d="M67.9587 24.8357V28.0193C67.9587 28.5812 67.787 29.0233 67.4515 29.3433C67.1107 29.6632 66.6478 29.8245 66.0599 29.8245C65.4617 29.8245 65.0039 29.6632 64.6814 29.3433C64.3589 29.0233 64.2002 28.576 64.2002 28.0063V24.8357H64.775V28.048C64.775 28.4589 64.8843 28.7762 65.1106 28.9973C65.3316 29.221 65.662 29.3329 66.1015 29.3329C66.5099 29.3329 66.8272 29.2236 67.0509 28.9973C67.272 28.7762 67.3864 28.4589 67.3864 28.048V24.8357H67.9587Z" fill="#58A1CA"/>
<path d="M72.8341 29.7594H70.103V24.8357H72.8315V25.3429H70.6648V26.9347H72.7119V27.4289H70.6648V29.2496H72.8315V29.7594H72.8341Z" fill="#58A1CA"/>
<path d="M75.3338 27.7124V29.7594H74.772V24.8357H76.1089C76.7149 24.8357 77.1597 24.9527 77.4458 25.1842C77.7397 25.4183 77.888 25.7669 77.888 26.2272C77.888 26.8801 77.5577 27.3223 76.897 27.5512L78.2339 29.7594H77.5525L76.3612 27.7124H75.3338ZM75.3338 27.2182H76.1245C76.5251 27.2182 76.819 27.1376 77.0089 26.9763C77.1961 26.8151 77.2898 26.5758 77.2898 26.2533C77.2898 25.9307 77.1883 25.7018 76.9958 25.5588C76.8086 25.4183 76.5043 25.3455 76.0855 25.3455H75.3364V27.2182H75.3338Z" fill="#58A1CA"/>
<path d="M84.0012 29.7594H83.4263V25.3429H81.8735V24.8357H85.554V25.3429H84.0012V29.7594Z" fill="#58A1CA"/>
<path d="M90.8697 29.7594H90.2948V27.4445H87.699V29.7594H87.1372V24.8357H87.699V26.9373H90.2948V24.8357H90.8697V29.7594Z" fill="#58A1CA"/>
<path d="M95.7866 29.7594H93.0581V24.8357H95.7866V25.3429H93.6199V26.9347H95.6669V27.4289H93.6199V29.2496H95.7866V29.7594Z" fill="#58A1CA"/>
<path d="M104.628 29.7594H104.067L103.076 26.4691C103.029 26.3183 102.974 26.1336 102.914 25.9203C102.86 25.6992 102.828 25.5666 102.821 25.5198C102.774 25.8137 102.701 26.1362 102.594 26.4821L101.632 29.7594H101.07L99.7593 24.8357H100.36L101.135 27.8737C101.242 28.3029 101.322 28.6904 101.377 29.0389C101.437 28.6306 101.528 28.23 101.645 27.8347L102.529 24.8383H103.13L104.054 27.8633C104.16 28.2118 104.254 28.6072 104.334 29.0415C104.368 28.7216 104.449 28.3315 104.576 27.8763L105.338 24.8383H105.955L104.628 29.7594Z" fill="#58A1CA"/>
<path d="M111.832 27.2987C111.832 28.0842 111.632 28.7033 111.232 29.1584C110.831 29.6058 110.274 29.8269 109.572 29.8269C108.849 29.8269 108.287 29.6084 107.887 29.1714C107.491 28.7267 107.299 28.0972 107.299 27.2857C107.299 26.482 107.494 25.8629 107.887 25.426C108.287 24.9916 108.849 24.7705 109.572 24.7705C110.285 24.7705 110.836 24.9942 111.232 25.439C111.63 25.8863 111.832 26.5054 111.832 27.2987ZM107.91 27.2987C107.91 27.962 108.048 28.464 108.324 28.8099C108.607 29.1584 109.023 29.3327 109.567 29.3327C110.108 29.3327 110.521 29.1662 110.797 28.8255C111.07 28.477 111.211 27.9698 111.211 27.3013C111.211 26.6328 111.07 26.1308 110.797 25.7901C110.519 25.452 110.108 25.2829 109.567 25.2829C109.021 25.2829 108.607 25.4572 108.324 25.8057C108.048 26.1412 107.91 26.638 107.91 27.2987Z" fill="#58A1CA"/>
<path d="M114.327 27.7124V29.7594H113.765V24.8357H115.102C115.708 24.8357 116.153 24.9527 116.439 25.1842C116.733 25.4183 116.881 25.7669 116.881 26.2272C116.881 26.8801 116.551 27.3223 115.89 27.5512L117.227 29.7594H116.546L115.354 27.7124H114.327ZM114.327 27.2182H115.118C115.518 27.2182 115.812 27.1376 116.002 26.9763C116.189 26.8151 116.283 26.5758 116.283 26.2533C116.283 25.9307 116.181 25.7018 115.989 25.5588C115.802 25.4183 115.497 25.3455 115.079 25.3455H114.33V27.2182H114.327Z" fill="#58A1CA"/>
<path d="M118.861 29.7594V24.8357H119.423V29.2366H121.589V29.7594H118.861Z" fill="#58A1CA"/>
<path d="M127.192 27.2572C127.192 28.0714 126.969 28.6878 126.524 29.117C126.087 29.5461 125.452 29.7594 124.625 29.7594H123.272V24.8357H124.771C125.538 24.8357 126.128 25.049 126.55 25.4781C126.979 25.8995 127.192 26.4925 127.192 27.2572ZM126.589 27.2702C126.589 26.6278 126.428 26.1466 126.108 25.8241C125.788 25.4964 125.304 25.3299 124.661 25.3299H123.832V29.2626H124.526C125.213 29.2626 125.723 29.0988 126.066 28.7684C126.414 28.4329 126.589 27.9335 126.589 27.2702Z" fill="#58A1CA"/>
<path d="M135.676 27.2572C135.676 28.0714 135.452 28.6878 135.007 29.117C134.57 29.5461 133.936 29.7594 133.108 29.7594H131.756V24.8357H133.254C134.021 24.8357 134.612 25.049 135.033 25.4781C135.46 25.8995 135.676 26.4925 135.676 27.2572ZM135.072 27.2702C135.072 26.6278 134.911 26.1466 134.591 25.8241C134.271 25.4964 133.787 25.3299 133.145 25.3299H132.315V29.2626H133.01C133.696 29.2626 134.206 29.0988 134.549 28.7684C134.898 28.4329 135.072 27.9335 135.072 27.2702Z" fill="#58A1CA"/>
<path d="M137.614 29.7594V24.8357H138.176V29.7594H137.614Z" fill="#58A1CA"/>
<path d="M142.524 27.1765H144.197V29.572C143.937 29.6526 143.674 29.715 143.406 29.7593C143.138 29.8035 142.823 29.8269 142.47 29.8269C141.721 29.8269 141.135 29.6084 140.717 29.1714C140.306 28.7267 140.1 28.0998 140.1 27.2987C140.1 26.7915 140.202 26.3441 140.407 25.9618C140.61 25.5794 140.906 25.2855 141.291 25.0774C141.682 24.8745 142.137 24.7705 142.657 24.7705C143.182 24.7705 143.674 24.8719 144.129 25.0644L143.903 25.5586C143.455 25.3713 143.026 25.2777 142.618 25.2777C142.02 25.2777 141.551 25.4572 141.213 25.8135C140.883 26.1725 140.719 26.6667 140.719 27.2987C140.719 27.9672 140.88 28.477 141.2 28.8229C141.52 29.1636 141.996 29.3301 142.631 29.3301C142.969 29.3301 143.299 29.2911 143.622 29.2105V27.6993H142.524V27.1765Z" fill="#58A1CA"/>
<path d="M146.221 29.7594V24.8357H146.783V29.7594H146.221Z" fill="#58A1CA"/>
<path d="M150.489 29.7594H149.914V25.3429H148.361V24.8357H152.042V25.3429H150.489V29.7594Z" fill="#58A1CA"/>
<path d="M156.715 29.7595L156.099 28.1937H154.132L153.516 29.7595H152.941L154.881 24.8228H155.362L157.303 29.7595H156.715ZM155.924 27.6865L155.349 26.1623C155.269 25.9672 155.193 25.7305 155.123 25.4522C155.069 25.6655 154.996 25.9048 154.91 26.1623L154.335 27.6865H155.924Z" fill="#58A1CA"/>
<path d="M158.818 29.7594V24.8357H159.38V29.2366H161.547V29.7594H158.818Z" fill="#58A1CA"/>
<path d="M163.23 29.7594V24.8357H163.792V29.2366H165.959V29.7594H163.23Z" fill="#58A1CA"/>
<path d="M168.888 27.2989L170.199 24.8357H170.815L169.182 27.8451V29.7594H168.594V27.8737L166.96 24.8357H167.59L168.888 27.2989Z" fill="#58A1CA"/>
</svg>
