<svg width="172" height="31" viewBox="0 0 172 31" fill="none" xmlns="http://www.w3.org/2000/svg">
<path d="M15.4433 10.7429C15.4355 10.7298 15.4225 10.722 15.4146 10.7116C15.4042 10.6986 15.3964 10.683 15.3808 10.6752C15.373 10.6674 15.3626 10.6674 15.3548 10.6622C15.308 10.6362 15.2508 10.631 15.1987 10.6518H15.1961C13.8435 11.2059 12.6234 11.9811 11.5621 12.9566C11.5543 12.9618 11.5491 12.967 11.5413 12.9748C10.3057 12.556 9.22352 11.8172 8.40151 10.8287C8.39371 10.8183 8.3833 10.8131 8.3755 10.8053C8.36249 10.7897 8.35208 10.7767 8.33908 10.7637C8.33388 10.7533 8.33127 10.7455 8.32347 10.735C7.99571 10.3292 7.71736 9.87401 7.49885 9.39017C7.49365 9.38237 7.48845 9.37456 7.48325 9.36676C7.47024 9.33814 7.45723 9.30953 7.44423 9.28092C7.44163 9.27571 7.44423 9.27051 7.44163 9.26791C7.35058 9.06241 7.27514 8.8491 7.20751 8.63579C7.2023 8.61498 7.1945 8.59417 7.1893 8.57596C7.12687 8.36525 7.07224 8.15195 7.03322 7.93864C6.78349 6.58856 6.989 5.22807 7.55868 4.02367C8.29225 2.47588 9.62153 1.18303 11.3488 0.493685L11.3514 0.491084C11.432 0.459868 11.4789 0.376626 11.4711 0.293384V0.290783C11.4711 0.288181 11.4685 0.288181 11.4685 0.28558C11.4581 0.202338 11.3956 0.134704 11.3098 0.119096C11.1147 0.0878803 10.9196 0.0644685 10.7245 0.0462594C10.6985 0.043658 10.6751 0.043658 10.649 0.0410567C10.4878 0.0280502 10.3291 0.0176449 10.1704 0.00984099C10.1236 0.00723968 10.0742 0.00723968 10.0273 0.00723968C9.88426 0.00203706 9.74119 0.00203706 9.60071 0.00463837C9.55389 0.00463837 9.50967 0.00723968 9.46285 0.00723968C9.41602 0.00984099 9.3692 0.00723968 9.32237 0.00984099C9.31457 0.00984099 9.30937 0.0150436 9.30417 0.0176449C9.24694 0.0202462 9.18971 0.0254489 9.13508 0.0280502C9.13248 0.0280502 9.12728 0.0254489 9.12467 0.0254489C9.10386 0.0280502 9.08565 0.0306515 9.06745 0.0332528C8.91397 0.0462594 8.76049 0.0644685 8.60961 0.085279C8.55759 0.093083 8.50816 0.0982856 8.45614 0.10609C8.31567 0.1269 8.1778 0.155514 8.03993 0.184129C7.97489 0.197135 7.90726 0.210142 7.84223 0.223149C7.73818 0.24656 7.63412 0.277776 7.53007 0.306391C7.43642 0.332404 7.34278 0.353214 7.25173 0.381829C7.21011 0.394835 7.16849 0.413044 7.12427 0.426051C6.98379 0.472875 6.84593 0.517097 6.70806 0.571724C6.51556 0.647162 6.32566 0.733006 6.13837 0.824052C6.10195 0.842261 6.06293 0.863071 6.02651 0.88128C5.87824 0.956718 5.72996 1.03736 5.58429 1.1232C5.54527 1.14661 5.50365 1.17003 5.46463 1.19344C5.11085 1.40675 4.76748 1.64867 4.44231 1.9166C4.4163 1.94001 4.38769 1.96343 4.36167 1.98424C4.2264 2.09609 4.09634 2.21315 3.96887 2.33541C3.93506 2.36663 3.90384 2.39785 3.87002 2.42906C3.74256 2.55392 3.6177 2.68139 3.49804 2.81406C3.47462 2.84007 3.45121 2.86348 3.4278 2.88949C3.41219 2.9077 3.39659 2.92331 3.38098 2.93892C3.37838 2.94152 3.37838 2.94672 3.37578 2.95192C3.33415 2.99875 3.29774 3.04557 3.25872 3.0924C3.25611 3.095 3.25611 3.095 3.25351 3.095C3.24571 3.1054 3.23791 3.11841 3.2275 3.12881C2.18958 4.36444 1.45341 5.8732 1.13084 7.48601C1.12824 7.49902 1.12564 7.51202 1.12304 7.52503C1.07622 7.76175 1.0398 8.00107 1.01118 8.24299C1.00858 8.27161 1.00338 8.30282 0.998176 8.33144C0.969562 8.59157 0.951353 8.8517 0.94615 9.11443C0.940947 9.39797 0.951353 9.67892 0.972163 9.95726C0.977366 10.0093 0.98517 10.0587 0.990372 10.1107C1.01118 10.3344 1.0398 10.5582 1.07622 10.7767C1.09182 10.8599 1.11003 10.9432 1.12824 11.0264C1.16466 11.2111 1.20368 11.3958 1.2531 11.5779C1.27912 11.6767 1.31033 11.7782 1.34155 11.877C1.39097 12.0409 1.443 12.2022 1.50283 12.3635C1.54185 12.4727 1.58347 12.5794 1.62769 12.686C1.68752 12.8343 1.75256 12.9826 1.82019 13.1283C1.87222 13.2401 1.92424 13.3494 1.97887 13.4586C2.05171 13.6017 2.13235 13.7422 2.21299 13.8826C2.27282 13.9867 2.33005 14.0907 2.39508 14.1948C2.49653 14.3587 2.60839 14.5174 2.72024 14.676C2.77227 14.7489 2.81649 14.8217 2.87112 14.8945C3.04021 15.1235 3.2223 15.3446 3.41219 15.5579C3.42 15.5657 3.4252 15.5761 3.433 15.5839C3.43821 15.5891 3.44341 15.5917 3.44601 15.5943C3.46942 15.6203 3.49544 15.6437 3.51625 15.6697C3.51885 15.6723 3.51885 15.6749 3.52145 15.6775C3.53706 15.6931 3.55266 15.7088 3.56827 15.727C3.73215 15.9065 3.90384 16.0781 4.08073 16.2472C4.11195 16.2758 4.14576 16.3045 4.17698 16.3357C4.35127 16.497 4.52816 16.6504 4.71545 16.8013C4.74667 16.8247 4.77528 16.8481 4.8065 16.8741C5.0042 17.0302 5.2071 17.1785 5.4152 17.3216C5.42821 17.3294 5.43862 17.3372 5.45162 17.345C6.08634 17.7742 6.77309 18.1462 7.50406 18.4427C7.69655 18.5234 7.88905 18.5962 8.08155 18.6638C8.08675 18.6664 8.09455 18.669 8.09976 18.6717C8.09455 18.6873 8.09195 18.7055 8.08935 18.7211C8.00871 19.0202 7.94108 19.3246 7.88125 19.6315C7.87344 19.6784 7.86304 19.7226 7.85523 19.7694C7.7954 20.1024 7.74598 20.4405 7.70956 20.7813C7.70956 20.7839 7.70956 20.7839 7.70956 20.7865C7.70176 20.8516 7.69655 20.914 7.69135 20.979C7.69135 20.9816 7.68875 20.9842 7.68875 20.9842C7.68355 21.0414 7.67834 21.0987 7.67574 21.1559C7.67314 21.1949 7.66794 21.2339 7.66534 21.2756H7.1867C6.93437 21.2756 6.70285 21.3796 6.53637 21.5461C6.52076 21.5617 6.51036 21.5799 6.49475 21.5955C6.47134 21.6241 6.44532 21.6502 6.42451 21.6814C6.32566 21.8296 6.26583 22.0065 6.26583 22.1964V23.9107C6.26583 24.3971 6.64302 24.7899 7.11906 24.8264V24.8316H7.18149C7.1841 24.8316 7.1841 24.8316 7.1867 24.8316H15.2716C15.3808 24.8316 15.4667 24.7431 15.4667 24.6365V10.8339C15.4667 10.8027 15.4589 10.7689 15.4433 10.7429ZM7.1867 21.6632H7.84743C7.87344 21.6632 7.89946 21.658 7.92287 21.6476C7.9931 21.6189 8.04253 21.5539 8.04513 21.4733C8.04773 21.4499 8.04773 21.4238 8.05033 21.403C8.05553 21.2964 8.06854 21.1897 8.07635 21.0831L13.3336 15.8232C13.37 15.7842 13.3882 15.7322 13.3882 15.6827V13.9763C13.5443 13.8826 13.651 13.7136 13.651 13.5185C13.651 13.2245 13.4116 12.9852 13.1177 12.9852C12.8237 12.9852 12.5844 13.2245 12.5844 13.5185C12.5844 13.724 12.7015 13.9008 12.8732 13.9893V15.5501L8.16999 20.2532C8.1752 20.2246 8.1778 20.196 8.183 20.1674C8.21161 19.9827 8.24543 19.8006 8.28185 19.6159C8.30006 19.5301 8.31306 19.4416 8.33388 19.3558C8.3911 19.0983 8.45614 18.8407 8.53158 18.591C8.56019 18.4896 8.50296 18.3829 8.40151 18.3517C8.3807 18.3439 8.35729 18.3361 8.33648 18.3283C8.15438 18.2684 7.9775 18.2008 7.80321 18.1332C7.43122 17.9849 7.05923 17.8158 6.69245 17.6233L9.73598 14.5798C9.94409 14.6552 10.1704 14.5954 10.3239 14.4419C10.4331 14.3327 10.493 14.1948 10.493 14.0361C10.493 13.88 10.4331 13.7396 10.3239 13.6303C10.1054 13.4118 9.72558 13.4066 9.50707 13.6303C9.39781 13.7396 9.33798 13.88 9.33798 14.0361C9.33798 14.0985 9.35099 14.1584 9.3692 14.213L6.21641 17.3684C5.8002 17.1213 5.4048 16.8481 5.03021 16.5516C5.0198 16.5438 5.0094 16.536 5.0016 16.5282C4.83511 16.3955 4.67383 16.255 4.51775 16.1146C4.48914 16.0885 4.46052 16.0651 4.43191 16.0391C4.27323 15.8908 4.11715 15.7374 3.96887 15.5813C3.95847 15.5709 3.94806 15.5605 3.93766 15.5501L8.23763 11.2501C9.09086 12.2178 10.2198 12.967 11.5309 13.3884C11.5985 13.4092 11.674 13.3936 11.7234 13.3442C11.7234 13.3442 11.726 13.3442 11.726 13.3416C11.765 13.3051 11.8092 13.2713 11.8482 13.2349C12.7977 12.3635 13.8799 11.6559 15.0739 11.1304V17.7482L8.27405 24.4388H7.1867C6.89795 24.4388 6.65863 24.1994 6.65863 23.9081V23.1173H7.73297C7.76419 23.1927 7.80841 23.2552 7.86304 23.3098C8.10496 23.5569 8.52117 23.5595 8.76569 23.315C8.89056 23.1927 8.95819 23.0367 8.95819 22.8624C8.95819 22.6881 8.89056 22.5346 8.76569 22.4097C8.51076 22.16 8.09976 22.1704 7.86564 22.4097C7.80581 22.4696 7.76419 22.532 7.73297 22.6048H6.65863V22.1938C6.65863 21.9779 6.7913 21.788 6.98119 21.7074C7.04623 21.6762 7.11386 21.6632 7.1867 21.6632ZM9.60071 14.0361C9.60071 13.8592 9.74119 13.724 9.91807 13.724C10.0898 13.724 10.2302 13.8618 10.2302 14.0361C10.2302 14.2078 10.0898 14.3483 9.91807 14.3483C9.74119 14.3483 9.60071 14.2078 9.60071 14.0361ZM3.44861 14.9908C3.34716 14.8659 3.24571 14.7385 3.14946 14.6084C3.08183 14.5174 3.01679 14.4237 2.95176 14.3301C2.86332 14.2 2.77747 14.0699 2.69423 13.9373C2.6344 13.841 2.57717 13.7448 2.52255 13.6459C2.44451 13.508 2.37167 13.3676 2.29883 13.2271C2.25201 13.1309 2.20258 13.0372 2.15836 12.941C2.08813 12.7901 2.02569 12.634 1.96326 12.4805C1.92945 12.3921 1.89043 12.3036 1.85921 12.2152C1.79678 12.0409 1.74215 11.8666 1.69013 11.6923C1.66931 11.6195 1.6433 11.5441 1.62509 11.4712C1.57307 11.2631 1.52884 11.0576 1.48982 10.8495C1.47942 10.8001 1.46641 10.7507 1.45861 10.7012C1.41439 10.4489 1.38317 10.1966 1.36236 9.94165C1.36236 9.93384 1.35976 9.92604 1.35976 9.92084C1.33895 9.6529 1.33114 9.38497 1.33635 9.11443C1.37277 7.24929 2.0439 5.33213 3.20149 3.77914V10.618C3.12605 10.6492 3.06362 10.6934 3.00899 10.7481C2.88673 10.8703 2.8217 11.0264 2.8217 11.2007C2.8217 11.375 2.88413 11.5284 3.00899 11.6507C3.24831 11.8978 3.66192 11.9056 3.91165 11.6507C4.03651 11.5258 4.09894 11.3724 4.09894 11.2007C4.09894 11.0238 4.03131 10.8677 3.91165 10.7481C3.85702 10.6934 3.78938 10.6492 3.71915 10.618V3.14182C3.76077 3.095 3.80499 3.05338 3.84661 3.00655C3.93766 2.9103 4.0287 2.81406 4.12235 2.72301C4.16657 2.67879 4.2134 2.63456 4.26022 2.59294C4.36427 2.49409 4.47093 2.40045 4.58018 2.3068C4.6218 2.27298 4.66082 2.23656 4.70244 2.20275C5.0068 1.95302 5.32676 1.72671 5.66233 1.5238C5.69875 1.50299 5.73516 1.48218 5.77158 1.46137C5.91466 1.38073 6.05513 1.30269 6.2008 1.22986C6.23722 1.21165 6.27104 1.19344 6.30745 1.17523C6.48434 1.08939 6.66643 1.00874 6.85113 0.935908C7.27254 0.769424 7.71476 0.64196 8.16739 0.550914C8.31307 0.522299 8.46134 0.496286 8.60961 0.475476L5.67794 3.40976C5.63892 3.44617 5.61811 3.4956 5.61811 3.54763V8.20657C5.54267 8.23519 5.47764 8.28201 5.41781 8.33924C5.29294 8.4641 5.23051 8.61758 5.23051 8.78927C5.23051 8.96095 5.29294 9.11443 5.41781 9.2419C5.66753 9.48902 6.07854 9.48382 6.32046 9.2419C6.44532 9.11703 6.50775 8.96356 6.50775 8.78927C6.50775 8.61498 6.44532 8.4615 6.32046 8.33664C6.26583 8.28201 6.2034 8.24299 6.13317 8.21178V3.68029L9.41342 0.402639C9.44464 0.400038 9.47585 0.397436 9.50707 0.397436C9.59551 0.394835 9.68136 0.394835 9.7698 0.392234C9.86345 0.392234 9.9597 0.389633 10.0533 0.392234C10.2198 0.397436 10.3863 0.40524 10.5554 0.420848C10.0872 0.660169 9.65794 0.946313 9.25994 1.26627C7.9931 2.28339 7.10085 3.66989 6.72887 5.19165C6.50775 6.10211 6.46873 7.05679 6.64562 8.01148C6.68464 8.22218 6.73667 8.42769 6.7965 8.63059C6.8043 8.654 6.80951 8.67741 6.81731 8.70082C6.87974 8.90633 6.94738 9.10923 7.02802 9.30433L3.64111 12.6938C3.433 12.6184 3.20669 12.6782 3.05321 12.8317C2.94396 12.9462 2.88413 13.0814 2.88413 13.2427C2.88413 13.3962 2.94396 13.5367 3.05321 13.6485C3.27172 13.8644 3.64111 13.8722 3.87002 13.6433C3.97928 13.5289 4.03911 13.3936 4.03911 13.2401C4.03911 13.1777 4.0261 13.1179 4.00789 13.0606L7.25953 9.80898C7.44423 10.1732 7.66274 10.5165 7.90986 10.8417L3.59168 15.1599C3.54226 15.1053 3.49544 15.048 3.44861 14.9908ZM3.77638 11.2085C3.77638 11.3802 3.63591 11.5206 3.45902 11.5206C3.28733 11.5206 3.14686 11.3802 3.14686 11.2085C3.14686 11.0368 3.28733 10.8963 3.45902 10.8963C3.63591 10.8963 3.77638 11.0368 3.77638 11.2085ZM6.18519 8.78667C6.18519 8.95835 6.04472 9.09882 5.87303 9.09882C5.70135 9.09882 5.56088 8.95835 5.56088 8.78667C5.56088 8.61498 5.70135 8.47451 5.87303 8.47451C6.04472 8.47451 6.18519 8.61498 6.18519 8.78667ZM13.1047 22.6465C13.0501 22.6465 13.0032 22.6673 12.9642 22.7063L11.2317 24.4388H9.01542L15.0765 18.4714V22.6491H13.1047V22.6465ZM15.0765 23.1641V24.4388H11.9627L13.2373 23.1641H15.0765ZM8.00351 22.8572C8.00351 22.6855 8.14398 22.545 8.31567 22.545C8.48735 22.545 8.62782 22.6855 8.62782 22.8572C8.62782 23.0341 8.48735 23.1745 8.31567 23.1745C8.14658 23.1745 8.00351 23.0341 8.00351 22.8572Z" fill="white"/>
<path d="M16.9155 10.2822C16.9051 10.2848 16.8999 10.2874 16.8921 10.2874V24.6337H16.9155V28.749L19.0694 30.4606L21.2233 28.749V24.6337H30.947C31.3476 24.6337 31.6727 24.3085 31.6727 23.9053V22.191C31.6727 21.793 31.3502 21.4653 30.947 21.4653H30.2914C30.2498 20.6849 30.125 19.6652 29.7972 18.5388C34.1674 17.1289 37.0731 13.2269 36.995 9.11425C36.93 5.65971 34.7553 2.08811 31.358 0.753638C29.5111 0.0278721 27.802 0.160539 26.8603 0.311415C30.0495 1.58346 31.8756 4.85591 31.2956 7.97488C30.8481 10.4045 29.0012 12.4127 26.5456 13.1983C24.6388 11.4008 22.5395 10.623 21.2259 10.2822V9.26773C21.2259 8.7995 20.8461 8.4171 20.3752 8.4171H17.7609C17.2927 8.4171 16.9129 8.79689 16.9129 9.26773V10.2822H16.9155Z" fill="white"/>
<path d="M48.7938 0.00292969L43.3467 18.1211H47.233L48.4218 14.2997H55.3647L56.5535 18.1211H60.4165L54.9902 0.00292969H48.7938ZM49.4468 10.9493L51.892 3.05427L54.3372 10.9493H49.4468Z" fill="white"/>
<path d="M63.9551 0.00292969V18.1211H67.701V0.00292969H63.9551Z" fill="white"/>
<path d="M80.3232 0.00292969L85.7704 18.1211H91.9667L97.3931 0.00292969H93.5301L88.8712 15.0697L84.1914 0.00292969H80.3232Z" fill="white"/>
<path d="M100.932 0.00292969V18.1211H104.678V0.00292969H100.932Z" fill="white"/>
<path d="M109.361 0.00284402V18.121H113.107V10.7385L117.162 10.715L120.885 18.121H125.01L120.539 9.06061L125.01 0.000244141H120.885L117.162 7.38277H113.107V0.000244141H109.361V0.00284402Z" fill="white"/>
<path d="M128.385 0.00292969V18.1211H132.131V0.00292969H128.385Z" fill="white"/>
<path d="M136.813 0.00292969V18.1211H140.559V6.54523L147.292 18.1211H151.043V0.00292969H147.292V11.5788L140.559 0.00292969H136.813Z" fill="white"/>
<path d="M158.328 0.00292969C156.887 0.00292969 155.745 1.14491 155.745 2.58863V15.5354C155.745 16.9817 156.887 18.1211 158.328 18.1211H167.388C168.834 18.1211 169.974 16.9791 169.974 15.5354V8.15544H162.919V11.5085H166.223V14.0942C166.223 14.4896 165.921 14.7706 165.523 14.7706H160.214C159.818 14.7706 159.491 14.4896 159.491 14.0942V4.03236C159.491 3.63696 159.818 3.36122 160.214 3.36122H165.523C165.921 3.36122 166.223 3.63957 166.223 4.03236V5.03647H169.974V2.59124C169.974 1.14491 168.832 0.00553354 167.388 0.00553354H158.328V0.00292969Z" fill="white"/>
<path d="M43.6836 25.2809C43.1373 25.2809 42.7107 25.4656 42.3986 25.8298C42.0838 26.1888 41.9303 26.6804 41.9303 27.3022C41.9303 27.9447 42.0812 28.4467 42.3855 28.8005C42.6873 29.1491 43.1139 29.3234 43.6706 29.3234C44.0192 29.3234 44.4094 29.2635 44.849 29.1361V29.6433C44.5082 29.7682 44.0894 29.8306 43.59 29.8306C42.8668 29.8306 42.3049 29.6121 41.9043 29.1751C41.5089 28.7303 41.3164 28.1034 41.3164 27.3022C41.3164 26.7949 41.4101 26.3475 41.5973 25.9651C41.7924 25.5827 42.0682 25.2887 42.4272 25.0806C42.7809 24.8777 43.2024 24.7737 43.6862 24.7737C44.2013 24.7737 44.6565 24.8673 45.0519 25.0546L44.797 25.5489C44.4276 25.372 44.0582 25.2809 43.6836 25.2809Z" fill="white"/>
<path d="M51.0351 27.3022C51.0351 28.0878 50.8348 28.7069 50.4342 29.1621C50.0336 29.6095 49.4769 29.8306 48.7745 29.8306C48.0514 29.8306 47.4895 29.6121 47.0889 29.1751C46.6935 28.7303 46.501 28.1008 46.501 27.2891C46.501 26.4853 46.6961 25.8662 47.0889 25.4292C47.4895 24.9948 48.0514 24.7737 48.7745 24.7737C49.4873 24.7737 50.0388 24.9974 50.4342 25.4422C50.8348 25.8896 51.0351 26.5088 51.0351 27.3022ZM47.1149 27.3022C47.1149 27.9655 47.2528 28.4675 47.5285 28.8135C47.812 29.1621 48.2282 29.3364 48.7719 29.3364C49.313 29.3364 49.7266 29.1699 50.0023 28.8291C50.2755 28.4806 50.416 27.9733 50.416 27.3048C50.416 26.6362 50.2755 26.1342 50.0023 25.7934C49.724 25.4552 49.313 25.2861 48.7719 25.2861C48.2256 25.2861 47.812 25.4604 47.5285 25.809C47.2502 26.1446 47.1149 26.6414 47.1149 27.3022Z" fill="white"/>
<path d="M56.8107 29.7628H56.1552L53.4654 25.6267H53.4394C53.4732 26.1184 53.4941 26.5632 53.4941 26.9638V29.7602H52.9712V24.8359H53.6137L56.2905 28.9564H56.3165C56.3165 28.8966 56.3061 28.6989 56.2905 28.3685C56.2697 28.0408 56.2671 27.804 56.2775 27.6584V24.8359H56.8133V29.7628H56.8107Z" fill="white"/>
<path d="M63.268 27.3022C63.268 27.9265 63.1379 28.4493 62.8804 28.8681C62.6307 29.2896 62.2717 29.5705 61.8086 29.711L62.987 30.9414H62.1442L61.1947 29.8306H61.0074C60.2843 29.8306 59.7224 29.6121 59.3218 29.1751C58.9264 28.7303 58.7339 28.1008 58.7339 27.2891C58.7339 26.4853 58.929 25.8662 59.3218 25.4292C59.7224 24.9948 60.2843 24.7737 61.0074 24.7737C61.7202 24.7737 62.2717 24.9974 62.6671 25.4422C63.0677 25.8896 63.268 26.5088 63.268 27.3022ZM59.3478 27.3022C59.3478 27.9655 59.4857 28.4675 59.7614 28.8135C60.0449 29.1621 60.4612 29.3364 61.0048 29.3364C61.5459 29.3364 61.9595 29.1699 62.2353 28.8291C62.5084 28.4806 62.6489 27.9733 62.6489 27.3048C62.6489 26.6362 62.5084 26.1342 62.2353 25.7934C61.9569 25.4552 61.5459 25.2861 61.0048 25.2861C60.4586 25.2861 60.0449 25.4604 59.7614 25.809C59.4857 26.1446 59.3478 26.6414 59.3478 27.3022Z" fill="white"/>
<path d="M68.9108 24.8386V28.0226C68.9108 28.5845 68.7391 29.0267 68.4035 29.3467C68.0627 29.6667 67.5997 29.8279 67.0118 29.8279C66.4135 29.8279 65.9557 29.6667 65.6331 29.3467C65.3105 29.0267 65.1519 28.5793 65.1519 28.0096V24.8386H65.7267V28.0512C65.7267 28.4623 65.836 28.7796 66.0623 29.0007C66.2834 29.2244 66.6138 29.3363 67.0534 29.3363C67.4618 29.3363 67.7792 29.227 68.0029 29.0007C68.224 28.7796 68.3385 28.4623 68.3385 28.0512V24.8386H68.9108Z" fill="white"/>
<path d="M73.7866 29.7629H71.0552V24.8386H73.784V25.3459H71.6171V26.9379H73.6643V27.4321H71.6171V29.253H73.784V29.7629H73.7866Z" fill="white"/>
<path d="M76.2865 27.7157V29.7629H75.7246V24.8386H77.0617C77.6678 24.8386 78.1126 24.9557 78.3988 25.1872C78.6927 25.4213 78.841 25.7699 78.841 26.2303C78.841 26.8833 78.5106 27.3255 77.8499 27.5544L79.187 29.7629H78.5054L77.314 27.7157H76.2865ZM76.2865 27.2214H77.0773C77.4779 27.2214 77.7718 27.1408 77.9617 26.9795C78.149 26.8182 78.2427 26.5789 78.2427 26.2563C78.2427 25.9338 78.1412 25.7049 77.9487 25.5618C77.7614 25.4213 77.4571 25.3485 77.0383 25.3485H76.2891V27.2214H76.2865Z" fill="white"/>
<path d="M84.955 29.7629H84.3801V25.3459H82.8271V24.8386H86.508V25.3459H84.955V29.7629Z" fill="white"/>
<path d="M91.8247 29.7629H91.2498V27.4477H88.6537V29.7629H88.0918V24.8386H88.6537V26.9405H91.2498V24.8386H91.8247V29.7629Z" fill="white"/>
<path d="M96.7415 29.7629H94.0127V24.8386H96.7415V25.3459H94.5746V26.9379H96.6218V27.4321H94.5746V29.253H96.7415V29.7629Z" fill="white"/>
<path d="M105.585 29.7629H105.023L104.032 26.4722C103.985 26.3214 103.931 26.1367 103.871 25.9234C103.816 25.7023 103.785 25.5696 103.777 25.5228C103.73 25.8167 103.657 26.1393 103.551 26.4853L102.588 29.7629H102.026L100.715 24.8386H101.316L102.091 27.877C102.198 28.3062 102.279 28.6938 102.333 29.0423C102.393 28.6339 102.484 28.2333 102.601 27.8379L103.486 24.8412H104.087L105.01 27.8665C105.117 28.2151 105.21 28.6105 105.291 29.0449C105.325 28.725 105.405 28.3348 105.533 27.8796L106.295 24.8412H106.912L105.585 29.7629Z" fill="white"/>
<path d="M112.789 27.3022C112.789 28.0878 112.589 28.7069 112.189 29.1621C111.788 29.6095 111.231 29.8306 110.529 29.8306C109.806 29.8306 109.244 29.6121 108.843 29.1751C108.448 28.7303 108.255 28.1008 108.255 27.2891C108.255 26.4853 108.45 25.8662 108.843 25.4292C109.244 24.9948 109.806 24.7737 110.529 24.7737C111.242 24.7737 111.793 24.9974 112.189 25.4422C112.587 25.8896 112.789 26.5088 112.789 27.3022ZM108.867 27.3022C108.867 27.9655 109.005 28.4675 109.28 28.8135C109.564 29.1621 109.98 29.3364 110.524 29.3364C111.065 29.3364 111.478 29.1699 111.754 28.8291C112.027 28.4806 112.168 27.9733 112.168 27.3048C112.168 26.6362 112.027 26.1342 111.754 25.7934C111.476 25.4552 111.065 25.2861 110.524 25.2861C109.977 25.2861 109.564 25.4604 109.28 25.809C109.005 26.1446 108.867 26.6414 108.867 27.3022Z" fill="white"/>
<path d="M115.285 27.7157V29.7629H114.723V24.8386H116.06C116.666 24.8386 117.111 24.9557 117.397 25.1872C117.691 25.4213 117.839 25.7699 117.839 26.2303C117.839 26.8833 117.509 27.3255 116.848 27.5544L118.185 29.7629H117.503L116.312 27.7157H115.285ZM115.285 27.2214H116.075C116.476 27.2214 116.77 27.1408 116.96 26.9795C117.147 26.8182 117.241 26.5789 117.241 26.2563C117.241 25.9338 117.139 25.7049 116.947 25.5618C116.759 25.4213 116.455 25.3485 116.036 25.3485H115.287V27.2214H115.285Z" fill="white"/>
<path d="M119.818 29.7629V24.8386H120.38V29.24H122.547V29.7629H119.818Z" fill="white"/>
<path d="M128.151 27.2604C128.151 28.0747 127.927 28.6912 127.483 29.1204C127.046 29.5496 126.411 29.7629 125.584 29.7629H124.231V24.8386H125.729C126.497 24.8386 127.087 25.0519 127.509 25.4811C127.938 25.9026 128.151 26.4957 128.151 27.2604ZM127.548 27.2735C127.548 26.6309 127.386 26.1497 127.066 25.8271C126.746 25.4994 126.263 25.3329 125.62 25.3329H124.79V29.2661H125.485C126.172 29.2661 126.681 29.1022 127.025 28.7718C127.373 28.4362 127.548 27.9368 127.548 27.2735Z" fill="white"/>
<path d="M136.636 27.2604C136.636 28.0747 136.412 28.6912 135.967 29.1204C135.53 29.5496 134.895 29.7629 134.068 29.7629H132.715V24.8386H134.214C134.981 24.8386 135.572 25.0519 135.993 25.4811C136.42 25.9026 136.636 26.4957 136.636 27.2604ZM136.032 27.2735C136.032 26.6309 135.871 26.1497 135.551 25.8271C135.231 25.4994 134.747 25.3329 134.104 25.3329H133.275V29.2661H133.969C134.656 29.2661 135.166 29.1022 135.509 28.7718C135.858 28.4362 136.032 27.9368 136.032 27.2735Z" fill="white"/>
<path d="M138.574 29.7629V24.8386H139.136V29.7629H138.574Z" fill="white"/>
<path d="M143.484 27.1799H145.157V29.5757C144.897 29.6563 144.634 29.7188 144.366 29.763C144.098 29.8072 143.784 29.8306 143.43 29.8306C142.681 29.8306 142.095 29.6121 141.677 29.1751C141.266 28.7303 141.06 28.1034 141.06 27.3022C141.06 26.7949 141.162 26.3475 141.367 25.9651C141.57 25.5827 141.866 25.2887 142.251 25.0806C142.642 24.8777 143.097 24.7737 143.617 24.7737C144.143 24.7737 144.634 24.8751 145.089 25.0676L144.863 25.5619C144.416 25.3746 143.987 25.2809 143.578 25.2809C142.98 25.2809 142.512 25.4604 142.173 25.8168C141.843 26.1758 141.679 26.67 141.679 27.3022C141.679 27.9707 141.84 28.4806 142.16 28.8265C142.48 29.1673 142.956 29.3338 143.591 29.3338C143.929 29.3338 144.26 29.2948 144.582 29.2141V27.7028H143.484V27.1799Z" fill="white"/>
<path d="M147.182 29.7629V24.8386H147.744V29.7629H147.182Z" fill="white"/>
<path d="M151.45 29.7629H150.875V25.3459H149.322V24.8386H153.003V25.3459H151.45V29.7629Z" fill="white"/>
<path d="M157.677 29.763L157.061 28.197H155.094L154.478 29.763H153.903L155.843 24.8257H156.325L158.265 29.763H157.677ZM156.887 27.6897L156.312 26.1654C156.231 25.9703 156.156 25.7335 156.085 25.4552C156.031 25.6685 155.958 25.9078 155.872 26.1654L155.297 27.6897H156.887Z" fill="white"/>
<path d="M159.781 29.7629V24.8386H160.343V29.24H162.51V29.7629H159.781Z" fill="white"/>
<path d="M164.193 29.7629V24.8386H164.755V29.24H166.922V29.7629H164.193Z" fill="white"/>
<path d="M169.851 27.3021L171.162 24.8386H171.779L170.145 27.8483V29.7629H169.557V27.877L167.924 24.8386H168.553L169.851 27.3021Z" fill="white"/>
</svg>
